<svg width="500" height="550" viewBox="0 0 500 550" fill="none" xmlns="http://www.w3.org/2000/svg">
<rect x="0.5" y="0.5" width="499" height="549" fill="white" stroke="black"/>
<rect x="222.5" y="432.5" width="51" height="117" fill="#C4C4C4" stroke="black"/>
<path d="M470.5 247C470.5 352.141 371.182 437.5 248.5 437.5C125.818 437.5 26.5 352.141 26.5 247C26.5 141.859 125.818 56.5 248.5 56.5C371.182 56.5 470.5 141.859 470.5 247Z" fill="white" stroke="black"/>
<path d="M446.5 247C446.5 341.089 356.144 417.5 244.5 417.5C132.856 417.5 42.5 341.089 42.5 247C42.5 152.911 132.856 76.5 244.5 76.5C356.144 76.5 446.5 152.911 446.5 247Z" fill="white" stroke="black"/>
<path d="M238.752 112H233.162V111.221L236.115 107.939C236.553 107.443 236.854 107.041 237.018 106.732C237.186 106.42 237.27 106.098 237.27 105.766C237.27 105.32 237.135 104.955 236.865 104.67C236.596 104.385 236.236 104.242 235.787 104.242C235.248 104.242 234.828 104.396 234.527 104.705C234.23 105.01 234.082 105.436 234.082 105.982H232.998C232.998 105.197 233.25 104.562 233.754 104.078C234.262 103.594 234.939 103.352 235.787 103.352C236.58 103.352 237.207 103.561 237.668 103.979C238.129 104.393 238.359 104.945 238.359 105.637C238.359 106.477 237.824 107.477 236.754 108.637L234.469 111.115H238.752V112ZM244.154 103.463V104.383H243.955C243.111 104.398 242.439 104.648 241.939 105.133C241.439 105.617 241.15 106.299 241.072 107.178C241.521 106.662 242.135 106.404 242.912 106.404C243.654 106.404 244.246 106.666 244.688 107.189C245.133 107.713 245.355 108.389 245.355 109.217C245.355 110.096 245.115 110.799 244.635 111.326C244.158 111.854 243.518 112.117 242.713 112.117C241.896 112.117 241.234 111.805 240.727 111.18C240.219 110.551 239.965 109.742 239.965 108.754V108.338C239.965 106.768 240.299 105.568 240.967 104.74C241.639 103.908 242.637 103.482 243.961 103.463H244.154ZM242.73 107.307C242.359 107.307 242.018 107.418 241.705 107.641C241.393 107.863 241.176 108.143 241.055 108.479V108.877C241.055 109.58 241.213 110.146 241.529 110.576C241.846 111.006 242.24 111.221 242.713 111.221C243.201 111.221 243.584 111.041 243.861 110.682C244.143 110.322 244.283 109.852 244.283 109.27C244.283 108.684 244.141 108.211 243.855 107.852C243.574 107.488 243.199 107.307 242.73 107.307ZM246.826 105.871L246.211 105.449C246.574 104.941 246.762 104.406 246.773 103.844V103H247.846V103.762C247.842 104.152 247.744 104.543 247.553 104.934C247.365 105.32 247.123 105.633 246.826 105.871ZM250.617 107.207H251.432C251.943 107.199 252.346 107.064 252.639 106.803C252.932 106.541 253.078 106.188 253.078 105.742C253.078 104.742 252.58 104.242 251.584 104.242C251.115 104.242 250.74 104.377 250.459 104.646C250.182 104.912 250.043 105.266 250.043 105.707H248.959C248.959 105.031 249.205 104.471 249.697 104.025C250.193 103.576 250.822 103.352 251.584 103.352C252.389 103.352 253.02 103.564 253.477 103.99C253.934 104.416 254.162 105.008 254.162 105.766C254.162 106.137 254.041 106.496 253.799 106.844C253.561 107.191 253.234 107.451 252.82 107.623C253.289 107.771 253.65 108.018 253.904 108.361C254.162 108.705 254.291 109.125 254.291 109.621C254.291 110.387 254.041 110.994 253.541 111.443C253.041 111.893 252.391 112.117 251.59 112.117C250.789 112.117 250.137 111.9 249.633 111.467C249.133 111.033 248.883 110.461 248.883 109.75H249.973C249.973 110.199 250.119 110.559 250.412 110.828C250.705 111.098 251.098 111.232 251.59 111.232C252.113 111.232 252.514 111.096 252.791 110.822C253.068 110.549 253.207 110.156 253.207 109.645C253.207 109.148 253.055 108.768 252.75 108.502C252.445 108.236 252.006 108.1 251.432 108.092H250.617V107.207ZM260.953 105.695C260.953 106.121 260.84 106.5 260.613 106.832C260.391 107.164 260.088 107.424 259.705 107.611C260.15 107.803 260.502 108.082 260.76 108.449C261.021 108.816 261.152 109.232 261.152 109.697C261.152 110.436 260.902 111.023 260.402 111.461C259.906 111.898 259.252 112.117 258.439 112.117C257.619 112.117 256.961 111.898 256.465 111.461C255.973 111.02 255.727 110.432 255.727 109.697C255.727 109.236 255.852 108.82 256.102 108.449C256.355 108.078 256.705 107.797 257.15 107.605C256.771 107.418 256.473 107.158 256.254 106.826C256.035 106.494 255.926 106.117 255.926 105.695C255.926 104.977 256.156 104.406 256.617 103.984C257.078 103.562 257.686 103.352 258.439 103.352C259.189 103.352 259.795 103.562 260.256 103.984C260.721 104.406 260.953 104.977 260.953 105.695ZM260.068 109.674C260.068 109.197 259.916 108.809 259.611 108.508C259.311 108.207 258.916 108.057 258.428 108.057C257.939 108.057 257.547 108.205 257.25 108.502C256.957 108.799 256.811 109.189 256.811 109.674C256.811 110.158 256.953 110.539 257.238 110.816C257.527 111.094 257.928 111.232 258.439 111.232C258.947 111.232 259.346 111.094 259.635 110.816C259.924 110.535 260.068 110.154 260.068 109.674ZM258.439 104.242C258.014 104.242 257.668 104.375 257.402 104.641C257.141 104.902 257.01 105.26 257.01 105.713C257.01 106.146 257.139 106.498 257.396 106.768C257.658 107.033 258.006 107.166 258.439 107.166C258.873 107.166 259.219 107.033 259.477 106.768C259.738 106.498 259.869 106.146 259.869 105.713C259.869 105.279 259.734 104.926 259.465 104.652C259.195 104.379 258.854 104.242 258.439 104.242ZM267.867 108.361C267.867 109.631 267.65 110.574 267.217 111.191C266.783 111.809 266.105 112.117 265.184 112.117C264.273 112.117 263.6 111.816 263.162 111.215C262.725 110.609 262.498 109.707 262.482 108.508V107.061C262.482 105.807 262.699 104.875 263.133 104.266C263.566 103.656 264.246 103.352 265.172 103.352C266.09 103.352 266.766 103.646 267.199 104.236C267.633 104.822 267.855 105.729 267.867 106.955V108.361ZM266.783 106.879C266.783 105.961 266.654 105.293 266.396 104.875C266.139 104.453 265.73 104.242 265.172 104.242C264.617 104.242 264.213 104.451 263.959 104.869C263.705 105.287 263.574 105.93 263.566 106.797V108.531C263.566 109.453 263.699 110.135 263.965 110.576C264.234 111.014 264.641 111.232 265.184 111.232C265.719 111.232 266.115 111.025 266.373 110.611C266.635 110.197 266.771 109.545 266.783 108.654V106.879Z" fill="black"/>
<path d="M251 149L214 324H283L251 149Z" fill="#939393" stroke="black"/>
<path d="M413.721 516.714L303.296 376L259 428.904L413.721 516.714Z" fill="#939393" stroke="black"/>
<path d="M72.5407 512.869L230.479 428.908L186.188 376L72.5407 512.869Z" fill="#939393" stroke="black"/>
<circle cx="248" cy="376" r="69.5" fill="#C4C4C4" stroke="black"/>
<path d="M228.92 395H219.604V393.701L224.525 388.232C225.255 387.406 225.756 386.735 226.029 386.221C226.309 385.7 226.449 385.163 226.449 384.609C226.449 383.867 226.225 383.258 225.775 382.783C225.326 382.308 224.727 382.07 223.979 382.07C223.08 382.07 222.38 382.327 221.879 382.842C221.384 383.35 221.137 384.059 221.137 384.971H219.33C219.33 383.662 219.75 382.604 220.59 381.797C221.436 380.99 222.566 380.586 223.979 380.586C225.3 380.586 226.345 380.934 227.113 381.631C227.882 382.321 228.266 383.242 228.266 384.395C228.266 385.794 227.374 387.461 225.59 389.395L221.781 393.525H228.92V395ZM237.924 380.771V382.305H237.592C236.186 382.331 235.066 382.747 234.232 383.555C233.399 384.362 232.917 385.498 232.787 386.963C233.536 386.104 234.558 385.674 235.854 385.674C237.09 385.674 238.077 386.11 238.812 386.982C239.555 387.855 239.926 388.981 239.926 390.361C239.926 391.826 239.525 392.998 238.725 393.877C237.93 394.756 236.863 395.195 235.521 395.195C234.161 395.195 233.057 394.674 232.211 393.633C231.365 392.585 230.941 391.237 230.941 389.59V388.896C230.941 386.279 231.498 384.281 232.611 382.9C233.731 381.514 235.395 380.804 237.602 380.771H237.924ZM235.551 387.178C234.932 387.178 234.363 387.363 233.842 387.734C233.321 388.105 232.96 388.571 232.758 389.131V389.795C232.758 390.967 233.021 391.911 233.549 392.627C234.076 393.343 234.734 393.701 235.521 393.701C236.335 393.701 236.973 393.402 237.436 392.803C237.904 392.204 238.139 391.419 238.139 390.449C238.139 389.473 237.901 388.685 237.426 388.086C236.957 387.48 236.332 387.178 235.551 387.178ZM242.377 384.785L241.352 384.082C241.957 383.236 242.27 382.344 242.289 381.406V380H244.076V381.27C244.07 381.921 243.907 382.572 243.588 383.223C243.275 383.867 242.872 384.388 242.377 384.785ZM248.695 387.012H250.053C250.906 386.999 251.576 386.774 252.064 386.338C252.553 385.902 252.797 385.312 252.797 384.57C252.797 382.904 251.967 382.07 250.307 382.07C249.525 382.07 248.9 382.295 248.432 382.744C247.969 383.187 247.738 383.776 247.738 384.512H245.932C245.932 383.385 246.342 382.451 247.162 381.709C247.989 380.96 249.037 380.586 250.307 380.586C251.648 380.586 252.699 380.941 253.461 381.65C254.223 382.36 254.604 383.346 254.604 384.609C254.604 385.228 254.402 385.827 253.998 386.406C253.601 386.986 253.057 387.419 252.367 387.705C253.148 387.952 253.751 388.363 254.174 388.936C254.604 389.508 254.818 390.208 254.818 391.035C254.818 392.311 254.402 393.324 253.568 394.072C252.735 394.821 251.651 395.195 250.316 395.195C248.982 395.195 247.895 394.834 247.055 394.111C246.221 393.389 245.805 392.435 245.805 391.25H247.621C247.621 391.999 247.865 392.598 248.354 393.047C248.842 393.496 249.496 393.721 250.316 393.721C251.189 393.721 251.856 393.493 252.318 393.037C252.781 392.581 253.012 391.927 253.012 391.074C253.012 390.247 252.758 389.613 252.25 389.17C251.742 388.727 251.01 388.499 250.053 388.486H248.695V387.012ZM265.922 384.492C265.922 385.202 265.733 385.833 265.355 386.387C264.984 386.94 264.48 387.373 263.842 387.686C264.584 388.005 265.17 388.47 265.6 389.082C266.036 389.694 266.254 390.387 266.254 391.162C266.254 392.393 265.837 393.372 265.004 394.102C264.177 394.831 263.087 395.195 261.732 395.195C260.365 395.195 259.268 394.831 258.441 394.102C257.621 393.366 257.211 392.386 257.211 391.162C257.211 390.394 257.419 389.701 257.836 389.082C258.259 388.464 258.842 387.995 259.584 387.676C258.952 387.363 258.454 386.93 258.09 386.377C257.725 385.824 257.543 385.195 257.543 384.492C257.543 383.294 257.927 382.344 258.695 381.641C259.464 380.938 260.476 380.586 261.732 380.586C262.982 380.586 263.992 380.938 264.76 381.641C265.535 382.344 265.922 383.294 265.922 384.492ZM264.447 391.123C264.447 390.329 264.193 389.681 263.686 389.18C263.184 388.678 262.527 388.428 261.713 388.428C260.899 388.428 260.245 388.675 259.75 389.17C259.262 389.665 259.018 390.316 259.018 391.123C259.018 391.93 259.255 392.565 259.73 393.027C260.212 393.49 260.88 393.721 261.732 393.721C262.579 393.721 263.243 393.49 263.725 393.027C264.206 392.559 264.447 391.924 264.447 391.123ZM261.732 382.07C261.023 382.07 260.447 382.292 260.004 382.734C259.568 383.171 259.35 383.766 259.35 384.521C259.35 385.244 259.564 385.83 259.994 386.279C260.43 386.722 261.01 386.943 261.732 386.943C262.455 386.943 263.031 386.722 263.461 386.279C263.897 385.83 264.115 385.244 264.115 384.521C264.115 383.799 263.891 383.21 263.441 382.754C262.992 382.298 262.423 382.07 261.732 382.07ZM277.445 388.936C277.445 391.051 277.084 392.624 276.361 393.652C275.639 394.681 274.509 395.195 272.973 395.195C271.456 395.195 270.333 394.694 269.604 393.691C268.874 392.682 268.497 391.178 268.471 389.18V386.768C268.471 384.678 268.832 383.125 269.555 382.109C270.277 381.094 271.41 380.586 272.953 380.586C274.483 380.586 275.609 381.077 276.332 382.061C277.055 383.037 277.426 384.548 277.445 386.592V388.936ZM275.639 386.465C275.639 384.935 275.424 383.822 274.994 383.125C274.564 382.422 273.884 382.07 272.953 382.07C272.029 382.07 271.355 382.419 270.932 383.115C270.508 383.812 270.29 384.883 270.277 386.328V389.219C270.277 390.755 270.499 391.891 270.941 392.627C271.391 393.356 272.068 393.721 272.973 393.721C273.865 393.721 274.525 393.376 274.955 392.686C275.391 391.995 275.619 390.908 275.639 389.424V386.465ZM238.617 411.389L236.879 413.195V418H235.004V403.781H236.879V410.812L243.197 403.781H245.463L239.867 410.061L245.902 418H243.656L238.617 411.389ZM250.609 413.518L250.883 415.393L251.283 413.703L254.096 403.781H255.678L258.422 413.703L258.812 415.422L259.115 413.508L261.322 403.781H263.207L259.76 418H258.051L255.121 407.639L254.896 406.555L254.672 407.639L251.635 418H249.926L246.488 403.781H248.363L250.609 413.518Z" fill="black"/>
<path d="M117.5 376L132.5 358" stroke="black" stroke-width="3"/>
<path d="M375.614 380.141L362 361.071" stroke="black" stroke-width="3"/>
<path d="M248.314 99.4295L248.235 75.9989" stroke="black" stroke-width="3"/>
<rect x="214.5" y="333.5" width="68" height="19" rx="9.5" fill="#5A4646" stroke="black"/>
<path d="M282.5 343.049C282.5 348.296 278.247 352.549 273 352.549C267.753 352.549 263.5 348.296 263.5 343.049C263.5 337.803 267.753 333.549 273 333.549C278.247 333.549 282.5 337.803 282.5 343.049Z" fill="#0702E8" stroke="black"/>
</svg>
