<svg width="500" height="550" viewBox="0 0 500 550" fill="none" xmlns="http://www.w3.org/2000/svg">
<rect x="0.5" y="0.5" width="499" height="549" fill="white" stroke="black"/>
<rect x="222" y="432" width="52" height="118" fill="#B7C1C5"/>
<path d="M470.5 247C470.5 352.141 371.182 437.5 248.5 437.5C125.818 437.5 26.5 352.141 26.5 247C26.5 141.859 125.818 56.5 248.5 56.5C371.182 56.5 470.5 141.859 470.5 247Z" fill="white" stroke="black"/>
<path d="M446.5 247C446.5 341.089 356.144 417.5 244.5 417.5C132.856 417.5 42.5 341.089 42.5 247C42.5 152.911 132.856 76.5 244.5 76.5C356.144 76.5 446.5 152.911 446.5 247Z" fill="white" stroke="black"/>
<path d="M238.752 112H233.162V111.221L236.115 107.939C236.553 107.443 236.854 107.041 237.018 106.732C237.186 106.42 237.27 106.098 237.27 105.766C237.27 105.32 237.135 104.955 236.865 104.67C236.596 104.385 236.236 104.242 235.787 104.242C235.248 104.242 234.828 104.396 234.527 104.705C234.23 105.01 234.082 105.436 234.082 105.982H232.998C232.998 105.197 233.25 104.562 233.754 104.078C234.262 103.594 234.939 103.352 235.787 103.352C236.58 103.352 237.207 103.561 237.668 103.979C238.129 104.393 238.359 104.945 238.359 105.637C238.359 106.477 237.824 107.477 236.754 108.637L234.469 111.115H238.752V112ZM244.154 103.463V104.383H243.955C243.111 104.398 242.439 104.648 241.939 105.133C241.439 105.617 241.15 106.299 241.072 107.178C241.521 106.662 242.135 106.404 242.912 106.404C243.654 106.404 244.246 106.666 244.688 107.189C245.133 107.713 245.355 108.389 245.355 109.217C245.355 110.096 245.115 110.799 244.635 111.326C244.158 111.854 243.518 112.117 242.713 112.117C241.896 112.117 241.234 111.805 240.727 111.18C240.219 110.551 239.965 109.742 239.965 108.754V108.338C239.965 106.768 240.299 105.568 240.967 104.74C241.639 103.908 242.637 103.482 243.961 103.463H244.154ZM242.73 107.307C242.359 107.307 242.018 107.418 241.705 107.641C241.393 107.863 241.176 108.143 241.055 108.479V108.877C241.055 109.58 241.213 110.146 241.529 110.576C241.846 111.006 242.24 111.221 242.713 111.221C243.201 111.221 243.584 111.041 243.861 110.682C244.143 110.322 244.283 109.852 244.283 109.27C244.283 108.684 244.141 108.211 243.855 107.852C243.574 107.488 243.199 107.307 242.73 107.307ZM246.826 105.871L246.211 105.449C246.574 104.941 246.762 104.406 246.773 103.844V103H247.846V103.762C247.842 104.152 247.744 104.543 247.553 104.934C247.365 105.32 247.123 105.633 246.826 105.871ZM250.617 107.207H251.432C251.943 107.199 252.346 107.064 252.639 106.803C252.932 106.541 253.078 106.188 253.078 105.742C253.078 104.742 252.58 104.242 251.584 104.242C251.115 104.242 250.74 104.377 250.459 104.646C250.182 104.912 250.043 105.266 250.043 105.707H248.959C248.959 105.031 249.205 104.471 249.697 104.025C250.193 103.576 250.822 103.352 251.584 103.352C252.389 103.352 253.02 103.564 253.477 103.99C253.934 104.416 254.162 105.008 254.162 105.766C254.162 106.137 254.041 106.496 253.799 106.844C253.561 107.191 253.234 107.451 252.82 107.623C253.289 107.771 253.65 108.018 253.904 108.361C254.162 108.705 254.291 109.125 254.291 109.621C254.291 110.387 254.041 110.994 253.541 111.443C253.041 111.893 252.391 112.117 251.59 112.117C250.789 112.117 250.137 111.9 249.633 111.467C249.133 111.033 248.883 110.461 248.883 109.75H249.973C249.973 110.199 250.119 110.559 250.412 110.828C250.705 111.098 251.098 111.232 251.59 111.232C252.113 111.232 252.514 111.096 252.791 110.822C253.068 110.549 253.207 110.156 253.207 109.645C253.207 109.148 253.055 108.768 252.75 108.502C252.445 108.236 252.006 108.1 251.432 108.092H250.617V107.207ZM260.953 105.695C260.953 106.121 260.84 106.5 260.613 106.832C260.391 107.164 260.088 107.424 259.705 107.611C260.15 107.803 260.502 108.082 260.76 108.449C261.021 108.816 261.152 109.232 261.152 109.697C261.152 110.436 260.902 111.023 260.402 111.461C259.906 111.898 259.252 112.117 258.439 112.117C257.619 112.117 256.961 111.898 256.465 111.461C255.973 111.02 255.727 110.432 255.727 109.697C255.727 109.236 255.852 108.82 256.102 108.449C256.355 108.078 256.705 107.797 257.15 107.605C256.771 107.418 256.473 107.158 256.254 106.826C256.035 106.494 255.926 106.117 255.926 105.695C255.926 104.977 256.156 104.406 256.617 103.984C257.078 103.562 257.686 103.352 258.439 103.352C259.189 103.352 259.795 103.562 260.256 103.984C260.721 104.406 260.953 104.977 260.953 105.695ZM260.068 109.674C260.068 109.197 259.916 108.809 259.611 108.508C259.311 108.207 258.916 108.057 258.428 108.057C257.939 108.057 257.547 108.205 257.25 108.502C256.957 108.799 256.811 109.189 256.811 109.674C256.811 110.158 256.953 110.539 257.238 110.816C257.527 111.094 257.928 111.232 258.439 111.232C258.947 111.232 259.346 111.094 259.635 110.816C259.924 110.535 260.068 110.154 260.068 109.674ZM258.439 104.242C258.014 104.242 257.668 104.375 257.402 104.641C257.141 104.902 257.01 105.26 257.01 105.713C257.01 106.146 257.139 106.498 257.396 106.768C257.658 107.033 258.006 107.166 258.439 107.166C258.873 107.166 259.219 107.033 259.477 106.768C259.738 106.498 259.869 106.146 259.869 105.713C259.869 105.279 259.734 104.926 259.465 104.652C259.195 104.379 258.854 104.242 258.439 104.242ZM267.867 108.361C267.867 109.631 267.65 110.574 267.217 111.191C266.783 111.809 266.105 112.117 265.184 112.117C264.273 112.117 263.6 111.816 263.162 111.215C262.725 110.609 262.498 109.707 262.482 108.508V107.061C262.482 105.807 262.699 104.875 263.133 104.266C263.566 103.656 264.246 103.352 265.172 103.352C266.09 103.352 266.766 103.646 267.199 104.236C267.633 104.822 267.855 105.729 267.867 106.955V108.361ZM266.783 106.879C266.783 105.961 266.654 105.293 266.396 104.875C266.139 104.453 265.73 104.242 265.172 104.242C264.617 104.242 264.213 104.451 263.959 104.869C263.705 105.287 263.574 105.93 263.566 106.797V108.531C263.566 109.453 263.699 110.135 263.965 110.576C264.234 111.014 264.641 111.232 265.184 111.232C265.719 111.232 266.115 111.025 266.373 110.611C266.635 110.197 266.771 109.545 266.783 108.654V106.879Z" fill="black"/>
<path d="M117.5 376L132.5 358" stroke="black" stroke-width="3"/>
<path d="M375.614 380.141L362 361.071" stroke="black" stroke-width="3"/>
<path d="M248.314 99.4295L248.235 75.9989" stroke="black" stroke-width="3"/>
<path d="M251 149L214 324H283L251 149Z" fill="#3C98AC"/>
<path d="M413.721 516.714L303.296 376L259 428.904L413.721 516.714Z" fill="#3C98AC" fill-opacity="0.4"/>
<path d="M72.5407 512.869L230.479 428.908L186.188 376L72.5407 512.869Z" fill="#3C98AC" fill-opacity="0.4"/>
<circle cx="248" cy="376" r="70" fill="#B7C1C5"/>
<rect x="224" y="337" width="51" height="20" rx="10" fill="#B1D6DE"/>
<path d="M275.5 346.5C275.5 353.737 270.298 359.5 264 359.5C257.702 359.5 252.5 353.737 252.5 346.5C252.5 339.263 257.702 333.5 264 333.5C270.298 333.5 275.5 339.263 275.5 346.5Z" fill="#3C98AC" stroke="#3C98AC"/>
<path d="M234.836 392H227.383V390.961L231.32 386.586C231.904 385.924 232.305 385.388 232.523 384.977C232.747 384.56 232.859 384.13 232.859 383.688C232.859 383.094 232.68 382.607 232.32 382.227C231.961 381.846 231.482 381.656 230.883 381.656C230.164 381.656 229.604 381.862 229.203 382.273C228.807 382.68 228.609 383.247 228.609 383.977H227.164C227.164 382.93 227.5 382.083 228.172 381.438C228.849 380.792 229.753 380.469 230.883 380.469C231.94 380.469 232.776 380.747 233.391 381.305C234.005 381.857 234.312 382.594 234.312 383.516C234.312 384.635 233.599 385.969 232.172 387.516L229.125 390.82H234.836V392ZM242.039 380.617V381.844H241.773C240.648 381.865 239.753 382.198 239.086 382.844C238.419 383.49 238.034 384.398 237.93 385.57C238.529 384.883 239.346 384.539 240.383 384.539C241.372 384.539 242.161 384.888 242.75 385.586C243.344 386.284 243.641 387.185 243.641 388.289C243.641 389.461 243.32 390.398 242.68 391.102C242.044 391.805 241.19 392.156 240.117 392.156C239.029 392.156 238.146 391.74 237.469 390.906C236.792 390.068 236.453 388.99 236.453 387.672V387.117C236.453 385.023 236.898 383.424 237.789 382.32C238.685 381.211 240.016 380.643 241.781 380.617H242.039ZM240.141 385.742C239.646 385.742 239.19 385.891 238.773 386.188C238.357 386.484 238.068 386.857 237.906 387.305V387.836C237.906 388.773 238.117 389.529 238.539 390.102C238.961 390.674 239.487 390.961 240.117 390.961C240.768 390.961 241.279 390.721 241.648 390.242C242.023 389.763 242.211 389.135 242.211 388.359C242.211 387.578 242.021 386.948 241.641 386.469C241.266 385.984 240.766 385.742 240.141 385.742ZM245.602 383.828L244.781 383.266C245.266 382.589 245.516 381.875 245.531 381.125V380H246.961V381.016C246.956 381.536 246.826 382.057 246.57 382.578C246.32 383.094 245.997 383.51 245.602 383.828ZM250.656 385.609H251.742C252.424 385.599 252.961 385.419 253.352 385.07C253.742 384.721 253.938 384.25 253.938 383.656C253.938 382.323 253.273 381.656 251.945 381.656C251.32 381.656 250.82 381.836 250.445 382.195C250.076 382.549 249.891 383.021 249.891 383.609H248.445C248.445 382.708 248.773 381.961 249.43 381.367C250.091 380.768 250.93 380.469 251.945 380.469C253.018 380.469 253.859 380.753 254.469 381.32C255.078 381.888 255.383 382.677 255.383 383.688C255.383 384.182 255.221 384.661 254.898 385.125C254.581 385.589 254.146 385.935 253.594 386.164C254.219 386.362 254.701 386.69 255.039 387.148C255.383 387.607 255.555 388.167 255.555 388.828C255.555 389.849 255.221 390.659 254.555 391.258C253.888 391.857 253.021 392.156 251.953 392.156C250.885 392.156 250.016 391.867 249.344 391.289C248.677 390.711 248.344 389.948 248.344 389H249.797C249.797 389.599 249.992 390.078 250.383 390.438C250.773 390.797 251.297 390.977 251.953 390.977C252.651 390.977 253.185 390.794 253.555 390.43C253.924 390.065 254.109 389.542 254.109 388.859C254.109 388.198 253.906 387.69 253.5 387.336C253.094 386.982 252.508 386.799 251.742 386.789H250.656V385.609ZM264.438 383.594C264.438 384.161 264.286 384.667 263.984 385.109C263.688 385.552 263.284 385.898 262.773 386.148C263.367 386.404 263.836 386.776 264.18 387.266C264.529 387.755 264.703 388.31 264.703 388.93C264.703 389.914 264.37 390.698 263.703 391.281C263.042 391.865 262.169 392.156 261.086 392.156C259.992 392.156 259.115 391.865 258.453 391.281C257.797 390.693 257.469 389.909 257.469 388.93C257.469 388.315 257.635 387.76 257.969 387.266C258.307 386.771 258.773 386.396 259.367 386.141C258.862 385.891 258.464 385.544 258.172 385.102C257.88 384.659 257.734 384.156 257.734 383.594C257.734 382.635 258.042 381.875 258.656 381.312C259.271 380.75 260.081 380.469 261.086 380.469C262.086 380.469 262.893 380.75 263.508 381.312C264.128 381.875 264.438 382.635 264.438 383.594ZM263.258 388.898C263.258 388.263 263.055 387.745 262.648 387.344C262.247 386.943 261.721 386.742 261.07 386.742C260.419 386.742 259.896 386.94 259.5 387.336C259.109 387.732 258.914 388.253 258.914 388.898C258.914 389.544 259.104 390.052 259.484 390.422C259.87 390.792 260.404 390.977 261.086 390.977C261.763 390.977 262.294 390.792 262.68 390.422C263.065 390.047 263.258 389.539 263.258 388.898ZM261.086 381.656C260.518 381.656 260.057 381.833 259.703 382.188C259.354 382.536 259.18 383.013 259.18 383.617C259.18 384.195 259.352 384.664 259.695 385.023C260.044 385.378 260.508 385.555 261.086 385.555C261.664 385.555 262.125 385.378 262.469 385.023C262.818 384.664 262.992 384.195 262.992 383.617C262.992 383.039 262.812 382.568 262.453 382.203C262.094 381.839 261.638 381.656 261.086 381.656ZM273.656 387.148C273.656 388.841 273.367 390.099 272.789 390.922C272.211 391.745 271.307 392.156 270.078 392.156C268.865 392.156 267.966 391.755 267.383 390.953C266.799 390.146 266.497 388.943 266.477 387.344V385.414C266.477 383.742 266.766 382.5 267.344 381.688C267.922 380.875 268.828 380.469 270.062 380.469C271.286 380.469 272.188 380.862 272.766 381.648C273.344 382.43 273.641 383.638 273.656 385.273V387.148ZM272.211 385.172C272.211 383.948 272.039 383.057 271.695 382.5C271.352 381.938 270.807 381.656 270.062 381.656C269.323 381.656 268.784 381.935 268.445 382.492C268.107 383.049 267.932 383.906 267.922 385.062V387.375C267.922 388.604 268.099 389.513 268.453 390.102C268.812 390.685 269.354 390.977 270.078 390.977C270.792 390.977 271.32 390.701 271.664 390.148C272.013 389.596 272.195 388.727 272.211 387.539V385.172ZM242.594 405.711L241.203 407.156V411H239.703V399.625H241.203V405.25L246.258 399.625H248.07L243.594 404.648L248.422 411H246.625L242.594 405.711ZM252.188 407.414L252.406 408.914L252.727 407.562L254.977 399.625H256.242L258.438 407.562L258.75 408.938L258.992 407.406L260.758 399.625H262.266L259.508 411H258.141L255.797 402.711L255.617 401.844L255.438 402.711L253.008 411H251.641L248.891 399.625H250.391L252.188 407.414Z" fill="black"/>
</svg>
